<svg xmlns:xlink="http://www.w3.org/1999/xlink" 
xmlns="http://www.w3.org/2000/svg" 
viewBox="0 0 200 291.6387953465793" 
preserveAspectRatio="xMidYMid meet" 
class="css-8aabad" 
id="brand" 
width="50" 
height="72.91">
  <defs id="SvgjsDefs2361"></defs>
  <g id="SvgjsG2362" featurekey="nameFeature-0" transform="matrix(8.361204653420693,0,0,8.361204653420693,49.498320225360594,-122.7424788899868)" fill="#111111">
  <path d="M1.4 44.32 c0.12 -0.12 0.16 0.08 0.24 0.12 c0.04 0 0.08 -0.04 0.12 -0.08 l0.08 0 c0 -0.08 -0.08 -0.04 -0.08 0 c-0.08 -0.04 -0.12 -0.08 -0.12 -0.16 c0.68 0.24 1.24 -0.28 2.12 -0.36 c-0.04 0.08 -0.24 0.08 -0.4 0.24 c-0.4 0 -0.8 0.32 -1.08 0.48 c0.12 0.12 0.28 -0.12 0.48 -0.04 c0.08 -0.04 0.04 -0.12 0.04 -0.2 c0.2 -0.04 0.36 -0.12 0.44 -0.16 c0.12 0.16 -0.28 0.28 -0.4 0.2 c0.04 0.24 0.44 -0.08 0.4 0.2 c0.04 -0.08 0.08 -0.16 0.08 -0.28 c0.12 0.24 0.2 -0.04 0.36 0.12 c0.04 0 0.04 -0.12 0.04 -0.2 c0.08 0 0.16 0.04 0.12 0.16 c0.2 -0.12 0.28 -0.24 0.4 -0.32 c0.2 -0.04 0 0.04 0.08 0.12 c0.12 -0.04 0.32 -0.04 0.32 -0.24 c0 0.2 0.52 0.24 0.48 -0.04 c0.16 0.12 0.24 -0.04 0.28 -0.2 c0.08 0 0.08 0.08 0.08 0.2 c0.24 0 0.32 -0.12 0.64 -0.16 c0.04 -0.04 0.04 -0.12 -0.04 -0.12 c0.52 -0.16 1.12 -0.28 1.56 -0.52 c0 0.04 -0.04 0.04 -0.04 0.08 c0.76 -0.28 1.8 -0.32 2.68 -0.52 l0 0.12 c0.72 -0.32 1.6 -0.4 2.12 -0.24 c0.76 -0.32 2.28 -0.24 3.28 -0.08 c0.04 -0.04 0.08 -0.08 0.08 -0.16 c0.48 0.12 0.6 0.36 1.2 0.4 c0 0.08 0.04 0.08 0.08 0.08 c0.04 -0.08 -0.04 -0.08 -0.08 -0.08 c-0.48 -0.36 -0.92 -0.48 -1.6 -0.64 c0.08 0 0.12 -0.04 0.16 -0.08 c-0.08 -0.2 -0.36 0 -0.52 -0.16 c-0.12 0 -0.08 0.2 -0.16 0.24 c-0.16 -0.2 -0.12 -0.04 -0.44 -0.04 c0 -0.08 0.08 -0.08 0.08 -0.2 c-0.12 -0.04 -0.28 0.08 -0.4 -0.08 c-0.08 0 -0.12 0.08 -0.08 0.2 c-0.08 0 -0.08 -0.08 -0.08 -0.16 c-0.44 0.12 -0.52 -0.12 -0.76 0.12 c-0.12 -0.32 -0.56 0.08 -0.6 -0.16 c-0.2 0.04 -0.12 0.16 -0.36 0.08 c0.08 -0.32 0.6 -0.24 0.76 -0.12 c0.12 0 0.16 -0.04 0.16 -0.16 c1.88 0 4.88 0 4.88 2.76 c-0.04 0 -0.08 0 -0.08 0.08 c-0.28 -0.12 -0.32 -0.44 -0.64 -0.52 c-0.48 -0.84 -2.24 -0.96 -3.48 -0.96 c-3.48 0 -7.12 1.04 -10.24 2.04 c-0.24 0.24 -0.44 0.16 -0.6 0.4 c-0.6 -0.04 -0.8 0.4 -1.4 0.52 c-1 0.52 -2.04 0.96 -2.92 1.56 c0 0.24 0 0.28 -0.12 0.4 c-0.2 0.04 -0.36 0 -0.44 -0.08 c-1.2 0.52 -1.6 1.8 -3.28 1.84 c-0.32 -0.4 -0.56 -0.76 -0.72 -1.28 c0.12 -0.88 0.92 -1.12 1.68 -1.36 c0.52 -0.32 0.92 -0.76 1.56 -0.92 c0.2 -1.36 0.8 -2.56 0.96 -3.8 c1.4 -3.6 2.52 -7.48 4 -10.84 c0.4 -1.72 1.24 -3.4 1.76 -5.16 c0.48 -0.8 0.44 -1.64 0.96 -2.4 c0.6 -2 1.48 -4.24 2.2 -6.12 l0 -0.36 c0.44 -0.68 0.56 -1.76 0.72 -2.64 c0.28 0.12 0.32 0.4 0.68 0.4 c0.2 0.4 0.64 0.56 0.88 0.92 c0 0.76 -0.2 1.28 -0.44 1.68 c0.08 0.16 -0.12 0.32 0 0.36 c-0.56 1.04 -0.68 1.96 -1.28 2.96 c-0.04 0.4 -0.2 1 -0.56 1.28 c0 1.12 -0.76 1.68 -0.8 2.64 c-0.32 0.36 -0.4 0.96 -0.64 1.4 c0 0.08 0.04 0.12 0.12 0.12 c-0.08 0.08 -0.12 0.16 -0.28 0.16 c0.04 0.52 -0.32 1.04 -0.48 1.4 c-0.2 1.12 -0.88 2.16 -1.04 3.08 c-0.16 0.24 -0.52 0.84 -0.4 1.2 c-0.48 0.6 -0.56 1.64 -0.96 2.2 c-0.04 0.12 0.08 0.08 0.04 0.24 c-0.44 0.8 -0.68 1.84 -1.12 2.68 c0.04 0.52 -0.36 0.96 -0.36 1.52 c-0.12 0.04 -0.12 0.16 -0.2 0.16 c-0.12 0.88 -0.6 1.6 -0.72 2.44 c-0.36 0.52 -0.4 1.32 -0.76 1.8 c0 0.08 0.08 -0.04 0.08 0.04 c-0.16 0.68 -0.32 0.96 -0.44 1.68 c0.52 -0.36 0.88 -0.36 1.44 -0.64 c0.12 0.28 -0.28 0.24 -0.08 0.44 c0.16 0 0.08 -0.2 0.2 -0.24 c0.16 0 0.32 0.24 0.4 0 c0 -0.16 -0.16 0.12 -0.16 -0.04 c0 -0.2 0.16 0 0.28 -0.12 c0 0.08 -0.08 0.08 -0.04 0.16 c0.2 0.08 0.2 -0.2 0.12 -0.28 z M5.72 23.44 c0 0.44 0.12 -0.12 0 0 l0 0 z M5.6 23.68 c0.04 0.16 0.12 -0.2 0 0 l0 0 z M5.2 24.64 l0.08 0 l0 -0.12 l-0.08 0 l0 0.12 z M5.28 24.759999999999998 c-0.16 -0.12 -0.12 0.2 0 0 l0 0 z M5.16 25 c0.04 0.2 0.04 -0.16 0 0 l0 0 z M5 25.48 c-0.08 0.04 -0.08 -0.04 -0.12 -0.04 c-0.04 0.12 -0.12 0.16 -0.16 0.28 c0 0.12 0.12 0.12 0.2 0.16 c0 -0.16 0.08 -0.2 0.08 -0.4 l0.04 0 c0 -0.08 0.08 -0.12 0.08 -0.28 l-0.2 0 c-0.04 0.16 0.04 0.2 0.08 0.28 z M4.64 26.28 c0.16 0 0.2 -0.32 0.04 -0.36 c-0.12 0.08 -0.12 0.2 -0.04 0.36 z M4.44 26.64 c0.12 0 0.12 -0.08 0.2 -0.12 l-0.2 0 l0 0.12 z M4.08 27.04 c0.28 0.16 -0.12 0.32 -0.04 0.6 c0.24 -0.04 0.16 -0.32 0.24 -0.04 c0.08 -0.16 0 -0.24 0.04 -0.48 c0.2 0.04 0.4 -0.32 0.16 -0.36 c-0.04 0.16 -0.24 0.16 -0.4 0.28 z M4.48 27.6 c0.04 0.2 0.04 -0.2 0 0 l0 0 z M4.72 27.8 c0 -0.04 0 -0.04 0.04 -0.04 c0 -0.08 0 -0.12 -0.08 -0.12 c0 0.08 0 0.16 0.04 0.16 z M3.56 28.28 c0.12 0.04 0.16 0.12 0.16 0.28 c0.36 -0.04 0.16 -0.84 0.44 -0.6 c-0.04 -0.12 0.04 -0.12 0.04 -0.2 c-0.44 0.04 -0.44 0.24 -0.64 0.52 z M4.04 28.04 c0.08 0.2 0.08 -0.2 0 0 l0 0 z M4.2 28.28 c0.12 0 0.12 -0.12 0.12 -0.24 c-0.12 -0.04 -0.12 0.12 -0.12 0.24 z M4.56 28.119999999999997 c-0.12 0.16 0.16 -0.12 0 0 l0 0 z M3.56 28.72 c0 0.08 0.04 0.16 -0.04 0.2 c-0.04 -0.04 -0.12 -0.08 -0.24 -0.08 c0 0.32 -0.16 0.36 -0.04 0.64 c-0.12 0 -0.32 0.16 -0.2 0.24 c0.04 -0.08 0.16 0.04 0.2 0.04 c-0.08 0.12 0.04 0.12 -0.04 0.2 c-0.12 -0.04 -0.12 -0.16 -0.2 -0.04 c-0.12 0.2 -0.12 0.48 -0.36 0.52 c0.12 0.04 0.16 0.12 0.16 0.24 c-0.28 0.08 -0.08 0.4 -0.4 0.48 c-0.08 0.92 -0.64 1.6 -0.76 2.56 c-0.04 -0.04 -0.04 -0.08 -0.08 -0.08 c-0.12 0.12 0 0.16 0.04 0.24 c-0.12 -0.04 -0.08 0.12 -0.2 0.12 c-0.04 0.76 -0.56 1.2 -0.44 1.92 c-0.08 0 -0.04 -0.16 -0.16 -0.12 c-0.08 0.36 -0.28 0.52 -0.36 0.84 c0.04 0.12 0.2 0.12 0.2 0.28 c-0.08 0 -0.08 -0.08 -0.16 -0.08 c-0.08 0.16 -0.2 0.36 -0.24 0.64 c-0.28 0.04 0 0.4 -0.28 0.4 c-0.04 0.12 0.08 0.12 0.04 0.24 c-0.6 1.2 -0.8 2.64 -1.44 3.8 c-0.04 0.12 0.16 0.08 0.12 0.24 c-0.4 0.32 -0.16 0.76 -0.48 1.16 c0.12 0.72 -0.64 1.6 -0.28 2.2 c-0.12 0 -0.12 -0.08 -0.2 -0.04 c0 0.08 -0.2 0.36 0 0.32 c0.44 -0.44 0.56 -1.2 0.72 -1.76 c-0.04 0.08 0.04 0.08 0.08 0.08 c0 -0.28 0.16 -0.56 0.04 -0.8 c0.12 -0.04 0.04 -0.2 0.2 -0.16 c-0.08 -0.08 -0.16 -0.28 0.12 -0.28 c0.04 -0.64 0.32 -1.04 0.4 -1.6 c0 0.08 0.04 0.08 0.08 0.12 c0 -0.12 0.08 -0.36 0 -0.44 c0.44 -0.16 0.08 -0.92 0.56 -1.08 c0 -0.04 -0.04 -0.16 -0.08 -0.28 c0.2 0 0.04 -0.32 0.28 -0.32 c0.04 -0.2 -0.16 -0.52 0.08 -0.36 c0 -0.6 0.4 -0.96 0.4 -1.44 l0.12 0 c0.12 -0.64 0.44 -1.04 0.56 -1.68 c0.04 0.04 0.08 0 0.08 -0.04 c-0.04 0 -0.08 -0.04 -0.08 -0.08 c0.2 -0.16 0.36 -0.6 0.28 -0.88 c0.2 0 0.32 -0.36 0.12 -0.44 c0.28 -0.2 0.56 -0.92 0.44 -1.24 c0.12 -0.04 0.12 0 0.24 -0.08 c-0.16 -0.32 0.4 -0.52 0.12 -0.76 c0.32 -0.12 0.08 -0.48 0.36 -0.64 c0.04 -0.12 -0.08 -0.08 -0.08 -0.16 c0.08 0.04 0.08 -0.04 0.12 -0.04 c0.04 -0.16 -0.12 -0.08 -0.08 -0.24 c0.36 0 0.48 -0.64 0.44 -1.08 c0.28 0 0.16 -0.44 0.28 -0.6 c-0.08 -0.16 -0.16 0.12 -0.2 0 c0 -0.08 0 -0.12 0.04 -0.12 c0.12 0 0.16 0.04 0.32 0 c-0.12 -0.32 0 -0.6 0.24 -0.72 c-0.16 -0.04 -0.24 -0.08 -0.36 0.04 c-0.04 -0.16 0.08 -0.12 0.04 -0.24 l-0.16 0 c-0.04 0.16 0.04 0.2 0.12 0.24 z M4.56 28.52 c0.04 0.04 0 -0.04 0 0 l0 0 z M4.08 28.6 c0.08 0.2 0.08 -0.16 0 0 l0 0 z M3.76 28.96 c0.04 0.04 -0.04 -0.04 0 0 l0 0 z M4.32 29.04 c0.04 0.04 0 0 0 0 l0 0 z M4.16 29.4 c0 -0.08 0.08 -0.12 0 -0.16 c-0.04 0.04 -0.12 0.12 0 0.16 z M3.6 30.04 c0 -0.04 -0.08 -0.04 -0.08 0 c0.04 0 0.08 0.08 0.08 0 z M3.68 30.439999999999998 c0 0.04 -0.04 -0.04 0 0 l0 0 z M3.68 30.52 c-0.12 0.16 0.16 -0.12 0 0 l0 0 z M3.52 30.68 l0 0.08 c0.12 0.08 0.12 -0.16 0.04 -0.12 c0 0 0 0.04 -0.04 0.04 z M3.48 31.08 c0.12 0.04 0.12 -0.24 0.04 -0.2 c0 0.08 -0.04 0.08 -0.04 0.2 z M3.36 31.16 c-0.12 0.16 0.2 0.16 0 0 l0 0 z M3.44 31.8 c-0.12 -0.08 -0.12 0 -0.24 -0.08 c-0.08 0.16 0.24 0.16 0.24 0.08 z M3.56 31.8 c0.08 0.16 0.08 -0.2 0 0 l0 0 z M3.12 31.96 l0 0.12 c0.12 0.08 0.16 -0.16 0.08 -0.16 c-0.04 0.04 -0.04 0.08 -0.08 0.04 z M2.88 32.08 c0.04 0.04 0 -0.04 0 0 l0 0 z M3.04 32.16 c0.04 0.04 -0.04 0 0 0 l0 0 z M3.2 32.4 c0 -0.04 0.08 -0.28 0 -0.28 c0 0.08 -0.16 0.24 0 0.28 z M2.84 32.76 c0 -0.16 0.2 -0.12 0.24 -0.08 c0 -0.04 0.04 -0.16 -0.04 -0.16 c-0.16 0.12 0.12 -0.28 -0.08 -0.2 c0 0.16 -0.28 0.28 -0.12 0.44 z M3.2 32.68 c0 0.04 -0.04 0 0 0 l0 0 z M2.84 32.92 c-0.2 -0.16 -0.12 0.16 0 0 l0 0 z M2.48 33.64 c0.12 0.04 0.12 -0.04 0.12 -0.16 c-0.12 -0.04 -0.16 0.04 -0.12 0.16 z M2.48 33.8 c0 -0.04 -0.12 -0.08 -0.12 0 c0.04 0 0.08 0.08 0.12 0 z M2.28 34.36 c0 -0.04 -0.08 -0.04 -0.12 0 c0.08 0 0.08 0.08 0.12 0 z M1.88 34.6 c-0.04 0.28 0.04 -0.16 0 0 l0 0 z M1.8 35.4 c0.12 0.04 0.2 -0.16 0.08 -0.2 c0 0.08 -0.08 0.12 -0.08 0.2 z M1.68 35.519999999999996 l0 0.12 c0.12 0.04 0.16 -0.2 0.08 -0.16 c-0.04 0.04 -0.04 0.04 -0.08 0.04 z M1.44 35.76 c0.08 0.2 0.08 -0.2 0 0 l0 0 z M1.64 35.8 c0.12 0.2 0.08 -0.16 0 0 l0 0 z M1.36 36.12 c0.04 0 -0.04 -0.04 0 0 l0 0 z M1.76 36.12 c0 0 -0.04 -0.04 0 0 l0 0 z M1.52 36.28 c0.04 0.2 0.04 -0.16 0 0 l0 0 z M1.2 36.4 c-0.16 0.2 0.28 0.04 0 0 l0 0 z M1.52 36.76 c0.04 0.16 0.12 -0.16 0 0 l0 0 z M1.16 37.24 l0.12 0 l0 -0.08 l-0.12 0 l0 0.08 z M0.84 37.48 l0.08 0 l0 -0.08 l-0.08 0 l0 0.08 z M1.04 37.72 c0 -0.08 0.16 -0.24 0.04 -0.32 c-0.04 0.08 -0.2 0.28 -0.04 0.32 z M0.96 37.92 c-0.04 0 -0.08 0 -0.08 0.04 c0.04 0 0.08 0 0.08 -0.04 z M0.64 38.2 c0 -0.08 0.08 -0.16 0 -0.24 c-0.04 0.04 -0.12 0.24 0 0.24 z M0.72 38.52 c-0.16 0 0.04 0.2 0 0 c0.12 -0.16 0.16 -0.32 0.2 -0.48 c-0.12 0.08 -0.2 0.24 -0.2 0.48 z M0.2 39.88 c-0.12 0.16 0.16 -0.12 0 0 l0 0 z M-0.08 40.04 c-0.04 0.28 0.04 -0.2 0 0 l0 0 z M0.68 40.12 c-0.04 0.04 -0.08 0 -0.08 0.08 c0.04 -0.04 0.08 0 0.08 -0.08 z M0.08 40.32 c-0.08 0.04 0 0.08 0 0 c0.12 -0.04 -0.08 -0.24 0 0 z M-0.52 41.44 c0 -0.04 0 -0.08 0.04 -0.04 c0 -0.08 0 -0.12 -0.08 -0.12 c0 0.08 0 0.16 0.04 0.16 z M-0.4 41.56 c0 0.04 -0.04 0 0 0 l0 0 z M-0.64 41.72 c0 0.04 -0.04 -0.04 0 0 l0 0 z M-0.56 42 c0.04 0.2 0.04 -0.2 0 0 l0 0 z M16.32 42.16 c0 -0.04 -0.08 -0.08 -0.08 0 c0.04 0 0.08 0.04 0.08 0 z M-1.04 42.84 c0.04 0 -0.04 -0.04 0 0 l0 0 z M9.24 43 c0.12 0 0.28 0 0.28 -0.12 c-0.12 0 -0.28 0 -0.28 0.12 z M-0.88 43.08 c0 0 -0.04 -0.04 0 0 l0 0 z M8 43.2 c0.08 0 0.24 0.04 0.16 -0.08 c-0.08 -0.04 -0.16 0 -0.16 0.08 z M8.24 43.2 c0.04 0 0.16 0 0.12 -0.08 l-0.08 0 c0 0.04 -0.04 0.04 -0.04 0.08 z M-1.2 43.36 c0.08 0.16 0.08 -0.2 0 0 l0 0 z M7.28 43.32 c-0.28 0.08 0.16 0.12 0 0 l0 0 z M6.6 43.56 c0 -0.08 -0.08 -0.08 -0.12 0 c0.08 -0.04 0.08 0.04 0.12 0 z M-1.08 43.72 c0.04 0.2 0.04 -0.16 0 0 l0 0 z M-1.08 44.08 c-0.08 -0.12 0.16 -0.24 -0.04 -0.24 c0 0.04 -0.08 0.24 0.04 0.24 z M-1.48 44.2 c0.04 0.04 0 0 0 0 l0 0 z M-1.24 44.56 c0 -0.08 0.04 -0.24 -0.08 -0.2 c-0.04 0.12 0 0.16 0.08 0.2 z M-1.32 44.64 c0.04 0.04 -0.04 0 0 0 l0 0 z M2.16 44.64 c0.04 0.04 0 0 0 0 l0 0 z M-0.16 45.04 c-0.12 -0.08 -0.16 0 -0.2 0.08 c0.08 0 0.24 0.04 0.2 -0.08 c0.12 -0.04 0.08 0.08 0.16 0.08 c-0.04 -0.16 0.12 -0.16 0.2 -0.24 c0 0.08 0 0.2 0.04 0.2 c0 -0.2 0.2 0 0.24 0 c0.04 -0.16 -0.04 -0.24 -0.08 -0.32 c-0.2 0.04 -0.52 0.04 -0.56 0.28 z M0.72 44.8 c0.16 0.12 0.16 -0.2 0 0 l0 0 z M1.76 44.84 l0.08 0 l0 -0.08 l-0.08 0 l0 0.08 z M-0.48 45.16 c0.04 0.04 0 0 0 0 l0 0 z M-0.84 45.56 c0.08 -0.2 0.08 -0.28 0.32 -0.16 c0.04 -0.2 -0.2 -0.08 -0.28 -0.16 c0 0.08 -0.2 0.2 -0.04 0.32 z M-0.48 45.4 c0.16 0.08 0.36 -0.08 0.2 -0.12 c0 0.08 -0.16 0.04 -0.2 0.12 z M3.44 29.2 l0 0 c0 0.04 -0.04 -0.04 0 0 z M2.96 30.28 c0 -0.04 0.04 -0.04 0.08 -0.04 c0 0.04 -0.08 0.04 -0.08 0.04 z M2.88 30.6 l0 0 c0.04 0 0 -0.04 0 0 z M3 30.759999999999998 c0.04 -0.16 0.04 0.2 0 0 l0 0 z M2.76 30.880000000000003 l0.08 0 c0.04 0.08 -0.08 0.08 -0.12 0.08 c0 -0.04 0.04 -0.04 0.04 -0.08 z M2.48 31.68 c0.08 0.04 0 0.24 -0.12 0.2 c-0.04 -0.12 0.12 -0.08 0.12 -0.2 z M2.4 32.16 l0 0.2 c-0.2 -0.08 -0.08 0.2 -0.16 0.24 c-0.2 -0.08 0 -0.44 0.16 -0.44 z M2.16 32.84 c0.16 -0.12 -0.12 0.16 0 0 l0 0 z M2 33.04 c0.16 0.2 -0.16 0.16 0 0 l0 0 z M1.64 33.72 c0.24 0.08 0.08 -0.2 0.2 -0.2 c0.08 0.16 0 0.48 -0.2 0.48 c0.08 -0.08 -0.04 -0.12 0 -0.28 z M1.6 34.08 c0.16 0.16 -0.08 0.32 -0.08 0.44 c-0.24 -0.08 0.12 -0.24 0.08 -0.44 z M1.64 34.519999999999996 l0 0 c0.04 0.04 0 -0.04 0 0 z M1.36 34.6 c0.16 -0.04 0.08 0.32 0.04 0.36 c-0.12 -0.04 0 -0.24 -0.04 -0.36 z M1.32 35 c0.16 0.28 -0.12 0.2 0 0 l0 0 z M1.12 35.32 c0.2 0 0.16 0.28 0 0.32 l0 -0.32 z M1.04 35.76 l0 0 c0 0.04 -0.04 0 0 0 z M1.28 35.8 c-0.04 0 -0.08 -0.04 0 -0.04 l0 0.04 z M0.24 37.48 c0.12 0.08 0.16 -0.16 0.2 -0.04 c0 0.08 0 0.16 -0.04 0.16 c-0.08 0 -0.12 -0.04 -0.16 -0.12 z M-0.4 39.84 c-0.04 0.08 -0.04 0.2 -0.16 0.2 c0 -0.08 0 -0.2 0.16 -0.2 z M-0.64 40.24 c0.16 -0.04 0.08 0.16 0.04 0.2 c-0.08 -0.04 -0.04 -0.12 -0.04 -0.2 z M-0.72 40.68 l0 0 c0.04 0 0 -0.04 0 0 z M-0.76 40.8 l0 0 c0.08 -0.04 0 -0.04 0 0 z M-0.76 40.8 c0 0.08 -0.08 0.04 0 0 l0 0 z M-0.96 41.16 l0 0 c0.04 0 0 -0.04 0 0 z M-1.04 41.48 c0.04 -0.2 0.04 0.2 0 0 l0 0 z M12.2 41.56 c0 0.08 -0.04 0.12 -0.12 0.12 c0 -0.08 0.04 -0.12 0.12 -0.12 z M11.24 41.64 c0.08 0.04 0.16 0.04 0.16 0.16 c-0.04 0.04 -0.08 0.04 -0.12 0.12 c-0.16 0 -0.28 -0.04 -0.4 -0.12 c-0.08 0.04 -0.12 0.04 -0.12 0.12 c0.04 0.16 0.2 -0.12 0.16 0.08 c-0.16 0.04 -0.24 -0.04 -0.24 -0.12 c-0.12 0 -0.12 0.12 0 0.12 c-0.12 0.16 -0.12 -0.2 -0.36 -0.08 c0.12 -0.32 0.68 -0.04 0.92 -0.28 z M11.96 41.64 c0.04 0.08 -0.08 0.08 -0.04 0.24 c-0.12 -0.08 -0.24 -0.16 -0.4 -0.08 c0.04 -0.04 0 -0.08 -0.04 -0.08 c0.12 -0.08 0.32 -0.08 0.48 -0.08 z M10 41.72 l0.16 0 c-0.04 0.16 0 0.24 0.04 0.32 c-0.16 -0.08 -0.36 -0.04 -0.48 -0.12 c-0.08 -0.24 0.36 0.04 0.28 -0.2 z M9.52 41.76 c0.24 0.04 -0.08 0.2 0 0.36 c-0.08 -0.08 -0.2 -0.12 -0.2 -0.32 c0.12 0 0.2 0.24 0.2 -0.04 z M13.76 41.88 c0.04 0 0.04 0.04 0.08 0.04 c0 0.04 -0.04 0.04 -0.04 0.08 c-0.04 0 -0.04 -0.04 -0.12 -0.04 c0.04 -0.04 0.08 -0.04 0.08 -0.08 z M8.48 41.92 c0.08 0 0.08 0.12 0.12 0.2 c0.2 -0.16 0.32 -0.12 0.64 -0.16 c-0.04 0.32 -0.44 0.04 -0.48 0.28 c-0.12 -0.12 -0.64 -0.04 -0.72 0.16 c-0.08 -0.12 -0.04 -0.28 0 -0.4 c0.08 0.08 0.2 0.12 0.32 0.16 c0.2 -0.04 0 -0.16 0.12 -0.24 z M14.16 41.96 c0.08 -0.2 0.08 0.2 0 0 l0 0 z M15.36 42.04 c-0.12 0 0.04 -0.2 0 0 l0 0 z M11.2 42.04 l0 0 c0.04 0.04 -0.04 0 0 0 z M-1.24 42.12 c0.16 -0.12 -0.12 0.16 0 0 l0 0 z M9.92 42.04 c0.12 -0.04 0.12 0.24 0 0.16 l0 -0.16 z M10.28 42.04 l0.2 0 c-0.04 0.04 -0.04 0.08 -0.04 0.16 l-0.12 0 c0 -0.04 -0.04 -0.08 -0.04 -0.16 z M7.84 42.12 c0 0.08 0.04 0.08 0.04 0.16 c-0.32 -0.04 -0.48 0.28 -0.92 0.2 c0.08 -0.28 0.44 0.04 0.4 -0.32 c0.12 0.32 0.16 -0.16 0.48 -0.04 z M9.72 42.2 c0.04 -0.2 0.04 0.2 0 0 l0 0 z M9.24 42.28 c0 0 0.08 -0.08 0.12 -0.04 s-0.16 0.12 -0.12 0.04 z M8.52 42.4 c0.04 -0.2 0.04 0.16 0 0 l0 0 z M6.84 42.4 c0.04 0 0.08 0.04 0.08 0.12 c-0.08 0.04 -0.08 -0.04 -0.08 -0.12 z M6.72 42.48 c0.04 0.2 -0.16 0.16 -0.28 0.2 c-0.04 -0.2 0.12 -0.2 0.28 -0.2 z M6.2 42.52 c0.04 0.04 0.04 0.12 0.12 0.12 c-0.04 0.12 -0.2 0.12 -0.24 0.04 c0 -0.08 0.16 -0.04 0.12 -0.16 z M7.84 42.52 l0.08 0 l0 0.12 l-0.08 0 l0 -0.12 z M5.44 42.64 c0.12 0.04 0.2 0.08 0.2 0.24 c-0.24 0.04 -0.48 0 -0.44 0.32 c-0.08 0.2 0 -0.24 -0.08 -0.2 c0.04 -0.16 0.24 -0.24 0.32 -0.36 z M7.68 42.68 c0.12 -0.2 0.08 0.16 0 0 l0 0 z M5.84 42.76 l0 0 c0 0.04 -0.04 0 0 0 z M4.88 43.12 c-0.16 0.12 -0.24 0 -0.4 0.04 s0.04 0.16 0 0.24 c-0.08 -0.08 -0.24 -0.12 -0.24 -0.24 l0.16 0 c-0.08 -0.08 -0.08 -0.12 0 -0.2 c0.16 0 0.2 0.2 0.28 -0.04 c0.12 0 0.08 0.16 0.2 0.2 z M4.88 43.12 l0 -0.16 c0.04 0 0.12 0 0.12 -0.04 c0.12 0.08 -0.04 0.36 -0.12 0.2 z M-1.48 43 l0 0 c0.04 0.04 0 0 0 0 z M7.64 43.08 c0 -0.08 0.08 -0.04 0 0 l0 0 z M4.08 43.12 l0 0 c0.04 0.04 0 -0.04 0 0 z M5.28 43.12 c0.08 -0.2 0.08 0.16 0 0 l0 0 z M3.84 43.16 l0 0 c0.04 0.04 0 -0.04 0 0 z M4.24 43.16 c-0.08 0 -0.04 -0.08 0 0 l0 0 z M6.88 43.2 c0.04 -0.2 0.04 0.2 0 0 l0 0 z M7.04 43.2 l0 0 c0 0.04 -0.04 0 0 0 z M-1.56 43.24 c0.12 -0.16 0 0.4 0 0 l0 0 z M3.92 43.24 c0.12 0.2 -0.2 0.12 -0.32 0.16 c0 -0.24 0.28 -0.08 0.32 -0.16 z M4.08 43.32 l0.12 0 l0 0.08 l-0.12 0 l0 -0.08 z M3.52 43.36 c0.04 0.16 -0.12 0.12 -0.16 0.24 c-0.16 -0.04 0.04 -0.24 0.16 -0.24 z M3.2 43.48 c-0.08 0.16 -0.28 0.28 -0.44 0.2 c0.04 -0.16 0.28 -0.28 0.44 -0.2 z M5.88 43.64 c0.12 -0.2 0.04 0.16 0 0 l0 0 z M-1.72 43.68 c0.12 0.04 0.04 0.24 -0.04 0.12 c0 -0.04 0.04 -0.08 0.04 -0.12 z M5.12 43.72 l0 0 c0 0.04 -0.04 0 0 0 z M2.6 43.72 c-0.04 0.08 -0.12 0.08 -0.08 0.16 c-0.12 -0.08 -0.12 0 -0.24 0 c0.04 -0.2 0.12 -0.08 0.32 -0.16 z M4.52 43.72 l0.12 0 l0 0.12 l-0.12 0 l0 -0.12 z M2.16 43.84 c0.08 0.16 -0.12 0.08 -0.08 0.24 c-0.2 -0.08 -0.4 0.08 -0.56 0.12 c0.12 -0.2 0.44 -0.24 0.64 -0.36 z M4.32 43.84 c0 0.04 -0.04 0.08 -0.12 0.08 c0 -0.04 0.04 -0.08 0.12 -0.08 z M4.08 43.92 c0.08 -0.2 0.08 0.2 0 0 l0 0 z M3.84 43.92 l0.12 0 l0 0.12 l-0.12 0 l0 -0.12 z M4.52 43.96 c0 0.08 -0.04 0.12 -0.12 0.12 c0 -0.08 0.04 -0.12 0.12 -0.12 z M3.36 44.08 c0.08 0.12 0.36 -0.16 0.32 0.12 c-0.12 -0.12 -0.24 0.08 -0.36 -0.04 c0 -0.04 0.04 -0.04 0.04 -0.08 z M1.04 44.32 c-0.08 -0.16 0.12 -0.08 0.24 -0.12 c0 0.2 -0.16 0.16 -0.24 0.12 z M1.4 44.32 c-0.04 0 -0.12 -0.04 -0.08 -0.12 l0.08 0 l0 0.12 z M1.04 44.32 c0 0.12 -0.12 0.08 -0.12 0.2 c-0.08 -0.04 -0.2 -0.04 -0.12 -0.2 l0.24 0 z M-1.96 44.56 c0.08 -0.04 0.08 0.04 0.12 0.08 c-0.04 0 -0.08 0.04 -0.08 0.04 c-0.04 0 -0.04 -0.08 -0.04 -0.12 z M-2.04 45.04 l0 0 c0.04 0.04 -0.04 -0.04 0 0 z" 
  fill="#111111"></path>
  </g>
</svg>