<svg xmlns:xlink="http://www.w3.org/1999/xlink" xmlns="http://www.w3.org/2000/svg" viewBox="0 0 144.12311740339655 300" preserveAspectRatio="xMidYMid meet" class="css-98pqax" id="dbgfhegd" width="144.12311740339655"  height="300" ><defs id="SvgjsDefs2616"></defs><g id="SvgjsG2617" featurekey="nameFeature-0" transform="matrix(9.094120665883645,0,0,9.094120665883645,5.820248479161562,-64.02257444959045)" fill="#111111"><path d="M15.04 31.92 c0 0.08 0.08 0.16 0.04 0.2 c-0.08 0 -0.12 -0.04 -0.12 -0.12 c0 -0.04 0.08 -0.04 0.08 -0.08 z M14.8 32 c0.12 0 0.12 0.16 0 0.12 c0 -0.04 -0.04 -0.08 0 -0.12 z M5.64 32.64 c-0.04 0.04 -0.12 0 -0.16 0.04 c-0.04 -0.12 0.12 -0.12 0.16 -0.04 z M11 21.64 c0.12 0.04 0.08 -0.04 0.16 -0.04 c0.04 0.08 0 0.08 -0.04 0.12 c0.12 0.04 0.2 -0.12 0.36 -0.12 c-0.16 0.24 -0.32 0.44 -0.4 0.72 c0.08 0.16 0.24 -0.08 0.28 -0.04 c-0.04 0.08 -0.08 0.24 -0.08 0.36 c0.04 0.08 0.04 -0.12 0.16 -0.08 c-0.04 0.2 -0.16 0.28 -0.16 0.48 c0.08 0.08 0.08 0.2 0.08 0.32 c0.16 0.24 0.44 -0.04 0.52 -0.08 c-0.04 0.32 -0.04 0.92 0.32 0.84 c0.12 0.2 0.08 0.4 0.12 0.64 c0.08 0 0.08 -0.08 0.2 -0.08 c0.08 0.04 0.04 0.2 0 0.28 c0 0.12 0.08 0 0.12 0.04 c-0.04 0.28 0.04 0.56 -0.12 0.72 c0.04 0.08 0.08 -0.04 0.16 0 c0 0.16 0.04 0.32 0.08 0.48 c0.08 0 0.16 0.04 0.16 -0.08 c-0.08 0.44 -0.16 1 0.36 1.12 c0.2 0.44 0.52 0.76 0.68 1.2 c0.08 0.08 0.24 0.2 0.2 0.36 c0.16 0.12 0.2 0.36 0.36 0.44 c0.04 0.08 -0.04 0.08 -0.04 0.12 c0.2 0.16 0.44 0.28 0.52 0.56 c-0.04 0 -0.08 -0.04 -0.08 -0.04 c-0.04 0.12 0.08 0.12 0.16 0.2 c0 0.04 -0.16 0 -0.16 0 c0 0.04 -0.04 0.12 0 0.2 c0.08 0.04 0.04 -0.08 0.12 -0.08 c0.08 0.04 0.2 0.08 0.16 0.16 c-0.08 0 -0.12 -0.12 -0.2 0 c0.04 0.04 0.12 -0.04 0.16 0.04 c0.08 0.32 0 0.36 0.04 0.6 c-0.04 -0.04 -0.04 -0.08 -0.04 -0.12 c-0.08 0 -0.12 0.04 -0.16 0.04 c0 0.08 0.08 0.08 0.16 0.12 c-0.12 0.16 -0.04 0.28 0 0.44 c-0.04 0.16 -0.2 0.16 -0.16 0.32 c-0.2 -0.04 -0.2 0.16 -0.4 0.16 c0.04 0.2 -0.12 0.24 -0.16 0.36 c-0.04 0 -0.12 -0.04 -0.2 -0.08 c-0.08 0.04 -0.16 0.12 -0.16 0.24 c0.08 0.12 0.2 0 0.2 -0.08 c0.28 0.08 0.32 -0.12 0.56 -0.12 c0 0.08 -0.04 0.12 -0.04 0.24 c-0.08 0 -0.08 0.04 -0.12 0.04 c0 0.04 0.04 0.08 0 0.12 c-0.24 0.16 -0.36 0.4 -0.64 0.48 c-0.04 0 0 -0.12 -0.04 -0.12 c-0.04 0.28 -0.24 0.52 -0.4 0.76 c-0.32 0.12 -0.48 0.36 -0.68 0.6 c-0.08 -0.04 -0.12 -0.04 -0.16 0 c-0.04 0.12 0.04 0.16 0 0.24 c-0.6 0.12 -0.76 0.68 -1.08 1.04 c-0.6 0.24 -0.96 0.68 -1.48 0.92 c-0.32 0.2 -0.48 0.64 -0.76 0.92 c-0.2 0.12 -0.44 0.2 -0.6 0.4 c-0.04 0.08 0 0.12 0 0.24 c-0.08 0 -0.08 0.08 -0.16 0.04 c-0.04 0.28 -0.32 0.32 -0.32 0.6 c-0.16 0.04 -0.2 0.2 -0.28 0.32 c-0.12 0.04 -0.28 0.12 -0.44 0.24 c-0.08 0.04 -0.16 0.2 -0.28 0.2 c-0.2 0.04 -0.44 -0.12 -0.64 -0.24 c-0.32 0 -0.68 -0.24 -1 -0.4 c0.08 0.12 0.36 0.28 0.52 0.44 c0 0.04 -0.04 0.04 -0.04 0.08 c0.12 0.2 0.44 0.16 0.64 0.32 c0 0.04 -0.04 0.08 -0.04 0.16 c-0.4 0.24 -0.6 0.04 -0.96 -0.2 c-0.52 -0.4 -0.96 -0.8 -1.6 -1.24 c-0.4 -0.32 -0.88 -0.64 -1.2 -0.96 s-0.8 -0.68 -1.2 -1 c-0.32 -0.32 -0.6 -0.56 -1.04 -0.68 s-0.84 -0.08 -1.24 -0.48 c-0.08 0 -0.16 0 -0.2 -0.04 c0 -0.92 0.28 -1.72 0.44 -2.56 c0.12 -0.04 0.16 -0.16 0.24 -0.12 c0.2 -2.96 0.36 -5.92 0.36 -8.72 c0 -0.04 0.04 -0.12 0.04 -0.16 c0.04 -1.04 -0.04 -1.28 -0.24 -2.28 c-0.2 0.36 -0.48 -3.16 -0.32 -2.68 c-0.12 -0.08 -0.2 -0.12 0 -0.16 c0 -0.32 -0.2 -0.68 0.04 -0.88 c0.12 -0.36 -0.04 -0.72 -0.08 -1.12 c-0.04 -0.36 0.16 -2.28 0 -2.6 c0.16 -0.4 0.24 -0.84 0.24 -1.36 c0.04 -0.48 0 -1.08 0.12 -1.52 c-0.12 -0.16 -0.08 -0.4 -0.12 -0.56 c-0.12 -0.04 0 0.2 -0.08 0.2 c-0.12 -0.12 -0.04 -0.44 0 -0.56 c-0.08 -0.08 -0.12 0 -0.2 0 c-0.04 -0.12 0.04 -0.12 0.04 -0.2 c-0.12 -0.04 0 0.16 -0.16 0.12 c-0.04 -0.28 0.12 -0.56 0.2 -0.76 c0.12 -0.04 0.04 0.12 0.12 0.12 c0.08 -0.16 0 -0.52 0.16 -0.64 c0 -0.28 0.12 -0.44 0.12 -0.72 c0.36 -0.2 0.28 -0.84 0.56 -1.12 c0.16 0.12 0.12 0.32 0.16 0.64 c0.04 0.44 0.32 0.72 0.44 1.08 c0.2 0.24 0.4 0.52 0.72 0.68 c0.28 -0.08 0.4 0.16 0.68 0.16 c0.16 0.12 0.32 0.24 0.4 0.44 c0.04 -0.04 0.28 0.04 0.32 -0.08 c0.2 0.32 0.84 0.24 1 0.76 c0.28 0.04 0.32 0.24 0.52 0.32 c0.08 0.24 0.2 0.48 0.4 0.56 c0.04 0.24 0.12 0.44 0.24 0.6 c0.08 0.44 0.24 0.96 0.2 1.4 c0 0.08 0.12 0.12 0.12 0.2 c-0.08 0.4 0.12 1.96 0.12 2.32 c-0.04 0.64 0.2 1.4 0.12 2 c-0.08 0.48 -0.52 0.76 -0.68 1.2 c-0.24 0.6 0.48 1.16 0.12 1.84 c-0.12 0.2 -0.32 0.16 -0.36 0.48 c0 0.12 0.04 0.2 0.04 0.28 c-0.04 0.28 -0.16 0.52 -0.2 0.76 c0 0.28 0.08 0.72 0 1.04 c0.04 0.12 0.04 0.24 0.08 0.32 c0 0.08 -0.12 0.08 -0.08 0.2 c0 0.04 0.04 0.04 0.08 0.08 c0 0.24 0.12 0.76 0.04 1.08 c0.24 0.36 0.08 0.68 0.16 1.08 c0 0.04 0.12 0.04 0.12 0.12 c0.04 0.12 -0.08 0 -0.16 0.04 c0.04 0.12 0.12 0.04 0.2 0.08 c0 0.12 -0.16 0.04 -0.12 0.16 c0.04 0.08 0.16 -0.08 0.2 0 c0 0.08 -0.04 0.16 -0.16 0.16 c0.08 0.04 0.04 0.16 0.16 0.24 c-0.08 0.28 -0.12 0.44 -0.08 0.72 c0.04 0.12 -0.08 0.08 -0.08 0.12 c0.12 0.36 0 0.76 0 1.04 c0 0.12 0.08 0.2 0.04 0.44 c0 0.04 -0.04 0 -0.04 0 c-0.04 0.2 0.04 0.44 0.04 0.72 c0 0.32 -0.08 0.6 0.04 0.84 c0 0.08 -0.08 0.04 -0.08 0.12 c0.04 0.28 0.16 0.6 -0.08 0.76 c0.08 0.28 -0.08 0.6 -0.08 0.8 c0.2 0.12 0.4 0 0.64 -0.16 c0.72 -0.4 1.56 -1.2 2.2 -1.68 c-0.04 -0.08 -0.12 -0.08 -0.12 -0.16 c-0.04 -0.2 -0.04 -0.36 -0.04 -0.56 c-0.08 -0.4 -0.56 -0.68 -0.36 -1.2 c-0.04 -0.16 -0.12 -0.24 -0.24 -0.32 c-0.04 -0.32 0.04 -0.44 0 -0.76 c-0.08 -0.08 -0.2 -0.24 -0.36 -0.2 c0 -0.28 -0.12 -0.52 -0.04 -0.8 c0 -0.12 -0.12 -0.08 -0.16 -0.16 c0.08 -2.08 1.28 -3.08 1.92 -4.6 c0.6 -0.8 1.04 -1.72 2 -2.16 c0 0.12 -0.12 0.08 -0.12 0.2 c0.04 0.04 0.12 -0.12 0.24 -0.08 c0 0.08 -0.08 0.08 -0.12 0.16 c0.2 0.12 -0.12 0.4 0.08 0.52 c-0.04 0.12 -0.08 0.28 -0.12 0.4 c0 0.04 0.08 0.04 0.08 0.08 c0.08 -0.04 0.2 -0.04 0.28 -0.12 c0 0.08 -0.2 0.24 -0.16 0.4 z M12.84 26.48 c0 -0.08 -0.04 -0.12 -0.08 -0.12 c-0.04 0.04 -0.04 0.16 0.08 0.12 z M0.56 31 c0.04 -0.12 0.12 -0.32 0.08 -0.4 c-0.04 0.08 -0.12 0.28 -0.08 0.4 z M0.2 32.24 c0.08 -0.16 0.12 -0.52 0.12 -0.68 c-0.08 0.2 -0.08 0.44 -0.12 0.68 z M14.68 31.880000000000003 c0.04 -0.12 0.2 -0.16 0.24 -0.32 c-0.08 0.08 -0.32 0.16 -0.24 0.32 z M0.36 32.12 c0 -0.12 0.08 -0.32 0.04 -0.48 c0 0.16 -0.12 0.36 -0.04 0.48 z M3.56 36.52 c-0.08 -0.32 -0.44 -0.48 -0.72 -0.52 c0.28 0.12 0.44 0.4 0.72 0.52 z M10.72 19.88 c-0.12 0.24 -0.52 0.4 -0.68 0.68 c-0.24 0.12 -0.28 0.36 -0.48 0.52 c0.24 -0.48 0.72 -0.88 1.16 -1.2 z" fill="#111111"></path></g></svg>